<svg width="756" height="177" viewBox="0 0 756 177" fill="none" xmlns="http://www.w3.org/2000/svg">
<path d="M15.616 137.688C14.2507 137.688 13.1413 137.219 12.288 136.28C11.4347 135.341 11.008 133.677 11.008 131.288C11.008 129.496 11.5627 126.595 12.672 122.584C13.8667 118.488 15.4453 113.709 17.408 108.248C19.456 102.787 21.7173 97.0267 24.192 90.968C26.752 84.824 29.3973 78.7227 32.128 72.664C34.8587 66.6053 37.5467 61.016 40.192 55.896C42.8373 50.6907 45.2693 46.296 47.488 42.712C49.7067 39.128 51.584 36.7813 53.12 35.672C54.912 34.392 56.576 33.752 58.112 33.752C58.9653 33.752 59.8187 33.8373 60.672 34.008C61.5253 34.1787 62.2507 34.4773 62.848 34.904C64.384 35.8427 65.7067 37.9333 66.816 41.176C68.0107 44.3333 69.0347 48.216 69.888 52.824C70.7413 57.3467 71.424 62.2107 71.936 67.416C72.5333 72.536 73.0453 77.6133 73.472 82.648C76.032 82.3067 78.1653 82.0507 79.872 81.88C81.5787 81.7093 82.816 81.624 83.584 81.624C86.4853 81.624 88.32 82.008 89.088 82.776C89.856 83.544 90.2827 84.44 90.368 85.464C90.5387 87 90.112 88.3653 89.088 89.56C88.064 90.7547 86.6133 91.6507 84.736 92.248C84.1387 92.4187 82.8587 92.7173 80.896 93.144C79.0187 93.4853 76.7573 93.912 74.112 94.424C74.1973 96.984 74.24 99.3733 74.24 101.592C74.3253 103.725 74.368 105.56 74.368 107.096C74.368 114.861 73.8987 120.707 72.96 124.632C72.0213 128.472 70.8693 131.075 69.504 132.44C68.1387 133.805 66.816 134.488 65.536 134.488C64 134.488 62.9333 134.061 62.336 133.208C61.7387 132.269 61.44 130.947 61.44 129.24V120.152C61.44 116.995 61.3973 113.411 61.312 109.4C61.312 105.304 61.2693 100.995 61.184 96.472C56.1493 97.3253 51.0293 98.136 45.824 98.904C40.704 99.672 36.2667 100.355 32.512 100.952C30.6347 105.816 29.0133 110.211 27.648 114.136C26.2827 117.976 25.344 120.92 24.832 122.968C23.552 127.235 22.4 130.435 21.376 132.568C20.352 134.616 19.3707 135.981 18.432 136.664C17.5787 137.347 16.64 137.688 15.616 137.688ZM36.864 89.56C41.3013 88.536 45.5253 87.5973 49.536 86.744C53.632 85.8907 57.3867 85.1653 60.8 84.568C60.544 76.888 60.0747 69.5493 59.392 62.552C58.7947 55.4693 57.8987 49.88 56.704 45.784C55.0827 48.6 53.1627 52.3547 50.944 57.048C48.7253 61.7413 46.3787 66.9467 43.904 72.664C41.5147 78.296 39.168 83.928 36.864 89.56ZM179.784 142.68C177.907 142.68 176.328 141.955 175.048 140.504C173.853 139.053 173.256 136.664 173.256 133.336C173.256 132.227 173.384 131.032 173.64 129.752C173.896 128.387 174.365 127.021 175.048 125.656C170.781 115.075 167.197 104.792 164.296 94.808C161.395 84.824 158.92 74.3707 156.872 63.448C154.141 69.08 151.539 74.9253 149.064 80.984C146.675 86.9573 144.413 92.8027 142.28 98.52C140.147 104.237 138.227 109.571 136.52 114.52C134.813 119.469 133.32 123.736 132.04 127.32C130.675 131.587 129.309 134.445 127.944 135.896C126.579 137.432 125.171 138.2 123.72 138.2C121.757 138.2 120.264 137.731 119.24 136.792C118.301 135.853 117.832 134.189 117.832 131.8C117.832 130.008 118.301 127.235 119.24 123.48C120.179 119.725 121.459 115.373 123.08 110.424C124.787 105.475 126.707 100.269 128.84 94.808C130.973 89.3467 133.235 84.0133 135.624 78.808C138.099 73.6027 140.573 68.9093 143.048 64.728C145.523 60.4613 147.869 57.0907 150.088 54.616C152.392 52.056 154.483 50.776 156.36 50.776C158.323 50.776 159.987 51.16 161.352 51.928C162.803 52.696 164.381 54.7013 166.088 57.944C167.197 60.1627 168.477 63.4053 169.928 67.672C171.379 71.8533 172.829 76.5893 174.28 81.88C175.731 87.0853 177.139 92.4613 178.504 98.008C179.869 103.469 181.064 108.547 182.088 113.24C185.501 97.4533 188.488 83.6293 191.048 71.768C193.608 59.8213 195.571 50.4773 196.936 43.736C198.387 36.9947 199.155 33.4533 199.24 33.112C199.752 30.8933 200.307 29.528 200.904 29.016C201.501 28.504 202.355 28.248 203.464 28.248C205 28.248 206.493 28.888 207.944 30.168C209.48 31.3627 210.248 33.0267 210.248 35.16C210.248 36.184 209.992 38.5307 209.48 42.2C209.053 45.8693 208.371 50.4773 207.432 56.024C206.579 61.4853 205.469 67.5867 204.104 74.328C202.739 80.984 201.16 87.9387 199.368 95.192C197.576 102.36 195.571 109.485 193.352 116.568C191.219 123.565 188.872 130.179 186.312 136.408C185.373 138.797 184.264 140.419 182.984 141.272C181.789 142.211 180.723 142.68 179.784 142.68ZM255.86 61.272C252.191 61.272 249.716 60.76 248.436 59.736C247.241 58.712 246.644 57.7307 246.644 56.792C246.644 55.4267 247.327 54.1893 248.692 53.08C250.143 51.9707 251.892 51.2027 253.94 50.776C256.415 50.264 259.401 49.752 262.9 49.24C266.484 48.6427 270.196 48.1307 274.036 47.704C277.876 47.192 281.631 46.808 285.3 46.552C288.969 46.296 292.169 46.168 294.9 46.168C298.484 46.168 301.215 46.8507 303.092 48.216C305.055 49.496 306.036 50.6907 306.036 51.8C306.036 51.8853 306.036 52.056 306.036 52.312C306.036 52.9947 305.908 53.592 305.652 54.104C305.396 54.616 304.543 55.128 303.092 55.64C301.727 56.0667 299.38 56.536 296.052 57.048C292.809 57.4747 288.201 57.944 282.228 58.456C281.033 58.5413 279.711 58.6693 278.26 58.84C277.919 61.144 277.407 64.1733 276.724 67.928C276.041 71.6827 275.273 75.864 274.42 80.472C273.567 85.08 272.671 89.816 271.732 94.68C270.793 99.4587 269.855 104.024 268.916 108.376C268.063 112.728 267.295 116.568 266.612 119.896C266.015 123.224 265.545 125.741 265.204 127.448C269.641 126.851 273.567 126.467 276.98 126.296C280.479 126.04 282.825 125.912 284.02 125.912C287.177 125.912 288.756 127.107 288.756 129.496C288.756 130.179 287.305 131.16 284.404 132.44C281.503 133.72 277.791 135.043 273.268 136.408C268.745 137.773 264.052 139.053 259.188 140.248C255.177 141.187 251.209 141.912 247.284 142.424C243.444 142.936 240.671 143.192 238.964 143.192C237.087 143.192 235.764 142.851 234.996 142.168C234.228 141.571 233.844 140.675 233.844 139.48C233.844 138.285 234.185 137.091 234.868 135.896C235.636 134.701 236.66 133.848 237.94 133.336C240.244 132.483 242.804 131.715 245.62 131.032C248.436 130.264 251.295 129.581 254.196 128.984C254.196 128.557 254.196 128.045 254.196 127.448C254.196 126.253 254.409 123.992 254.836 120.664C255.348 117.336 255.988 113.368 256.756 108.76C257.524 104.067 258.377 99.2027 259.316 94.168C260.255 89.048 261.151 84.184 262.004 79.576C262.857 74.8827 263.625 70.8293 264.308 67.416C264.991 63.9173 265.503 61.5707 265.844 60.376C263.711 60.632 261.791 60.8453 260.084 61.016C258.377 61.1867 256.969 61.272 255.86 61.272ZM407.377 135.896C405.841 135.896 404.518 135.213 403.409 133.848C402.385 132.483 401.873 130.093 401.873 126.68C401.873 124.717 402.257 122.413 403.025 119.768C404.732 114.392 406.481 108.632 408.273 102.488C410.15 96.344 411.9 90.072 413.521 83.672C415.228 77.272 416.593 71.0853 417.617 65.112C418.641 59.0533 419.153 53.5067 419.153 48.472C419.153 46.7653 419.068 45.1013 418.897 43.48C418.812 41.8587 418.598 40.3227 418.257 38.872C409.638 47.064 401.66 58.2 394.321 72.28C387.068 86.2747 380.454 102.573 374.481 121.176C373.457 123.992 372.177 125.955 370.641 127.064C369.105 128.173 367.654 128.728 366.289 128.728C365.094 128.728 363.942 128.259 362.833 127.32C361.724 126.296 361.169 124.76 361.169 122.712C361.169 121.347 361.51 119.427 362.193 116.952C362.876 114.392 364.07 112.045 365.777 109.912C366.716 104.28 367.484 98.3067 368.081 91.992C368.764 85.6773 369.105 79.832 369.105 74.456C369.105 71.9813 368.977 69.6773 368.721 67.544C368.55 65.3253 368.252 63.4053 367.825 61.784C363.388 66.4773 359.249 72.3653 355.409 79.448C351.654 86.4453 348.326 93.9973 345.425 102.104C342.524 110.125 340.092 117.976 338.129 125.656C336.593 131.203 334.118 133.976 330.705 133.976C329.34 133.976 328.188 133.251 327.249 131.8C326.396 130.349 325.969 128.173 325.969 125.272C325.969 122.456 326.652 118.659 328.017 113.88C329.382 109.101 331.217 103.853 333.521 98.136C335.91 92.4187 338.556 86.744 341.457 81.112C344.444 75.3947 347.516 70.1893 350.673 65.496C353.916 60.7173 357.073 56.8773 360.145 53.976C363.217 51.0747 365.99 49.624 368.465 49.624C370.086 49.624 371.537 49.9227 372.817 50.52C374.097 51.1173 375.206 52.3547 376.145 54.232C377.084 56.024 377.766 58.7973 378.193 62.552C378.705 66.2213 378.961 71.128 378.961 77.272C378.961 78.3813 378.961 79.6613 378.961 81.112C381.436 74.2853 384.294 67.672 387.537 61.272C390.865 54.7867 394.364 48.984 398.033 43.864C401.702 38.744 405.372 34.6907 409.041 31.704C412.71 28.7173 416.166 27.224 419.409 27.224C423.078 27.224 426.065 29.2293 428.369 33.24C430.673 37.1653 431.825 43.352 431.825 51.8C431.825 59.8213 431.185 67.6293 429.905 75.224C428.625 82.8187 427.004 89.9867 425.041 96.728C423.164 103.469 421.201 109.613 419.153 115.16C417.19 120.621 415.484 125.315 414.033 129.24C413.094 131.629 412.113 133.336 411.089 134.36C410.065 135.384 408.828 135.896 407.377 135.896ZM491.233 135.256C489.1 135.256 486.838 134.616 484.449 133.336C482.06 132.056 479.841 129.965 477.793 127.064C475.83 124.163 474.209 120.323 472.929 115.544C471.649 110.765 471.009 104.877 471.009 97.88C471.009 92.3333 471.692 86.7013 473.057 80.984C474.508 75.1813 476.726 69.72 479.713 64.6C482.785 59.3947 486.71 54.9147 491.489 51.16C496.353 47.32 502.241 44.6747 509.153 43.224C512.14 42.5413 515.51 41.9013 519.265 41.304C523.105 40.6213 526.988 40.024 530.913 39.512C534.924 38.9147 538.678 38.4453 542.177 38.104C545.761 37.7627 548.79 37.592 551.265 37.592C555.276 37.592 558.134 38.3173 559.841 39.768C561.633 41.1333 562.529 42.456 562.529 43.736C562.529 44.5893 562.188 45.4 561.505 46.168C560.822 46.8507 559.5 47.2773 557.537 47.448C556.769 47.5333 555.148 47.7467 552.673 48.088C550.198 48.344 547.212 48.728 543.713 49.24C540.214 49.752 536.545 50.3067 532.705 50.904C528.95 51.416 525.281 51.9707 521.697 52.568C518.198 53.08 515.169 53.5493 512.609 53.976C505.526 55.3413 499.937 57.688 495.841 61.016C491.745 64.344 488.758 68.2693 486.881 72.792C485.004 77.3147 483.809 81.9653 483.297 86.744C486.71 85.976 490.422 85.1653 494.433 84.312C498.529 83.4587 502.454 82.6907 506.209 82.008C509.964 81.24 513.206 80.6427 515.937 80.216C518.753 79.7893 520.63 79.576 521.569 79.576C523.361 79.576 524.47 79.96 524.897 80.728C525.409 81.496 525.665 82.4773 525.665 83.672C525.665 85.976 521.91 88.536 514.401 91.352C506.977 94.168 496.438 96.5573 482.785 98.52C482.785 101.421 482.828 104.408 482.913 107.48C483.084 110.467 483.34 113.24 483.681 115.8C484.022 118.36 484.449 120.408 484.961 121.944C485.473 123.48 486.156 124.248 487.009 124.248C488.972 124.248 491.532 123.651 494.689 122.456C497.932 121.261 501.302 119.811 504.801 118.104C508.3 116.397 511.5 114.733 514.401 113.112C517.388 111.491 519.564 110.211 520.929 109.272C522.55 108.248 524.3 107.139 526.177 105.944C528.054 104.749 529.462 104.152 530.401 104.152C531.596 104.152 532.193 104.835 532.193 106.2C532.193 106.968 531.51 108.461 530.145 110.68C528.865 112.899 526.988 115.416 524.513 118.232C522.038 120.963 519.094 123.651 515.681 126.296C512.353 128.856 508.598 130.989 504.417 132.696C500.321 134.403 495.926 135.256 491.233 135.256Z" fill="black"/>
<path d="M577.456 138.072C576.091 138.072 574.661 137.731 573.168 137.048C571.717 136.408 570.48 135.341 569.456 133.848C568.475 132.312 567.984 130.285 567.984 127.768C567.984 124.824 568.24 121.709 568.752 118.424C569.264 115.139 569.925 111.853 570.736 108.568C571.589 105.24 572.528 102.083 573.552 99.096C574.576 96.1093 575.6 93.4427 576.624 91.096C577.691 88.7493 578.672 86.9147 579.568 85.592C580.464 84.2267 581.211 83.544 581.808 83.544C582.619 83.544 583.301 83.864 583.856 84.504C584.453 85.144 584.752 86.04 584.752 87.192C584.752 87.6613 584.475 88.7707 583.92 90.52C583.365 92.2267 582.661 94.3813 581.808 96.984C580.955 99.5867 580.037 102.403 579.056 105.432C578.117 108.461 577.221 111.512 576.368 114.584C575.515 117.656 574.811 120.557 574.256 123.288C573.701 126.019 573.424 128.344 573.424 130.264C573.424 130.819 573.573 131.352 573.872 131.864C574.171 132.333 574.661 132.568 575.344 132.568C576.283 132.568 577.627 132.355 579.376 131.928C581.168 131.501 583.109 130.989 585.2 130.392C587.291 129.752 589.296 129.133 591.216 128.536C593.136 127.939 594.757 127.427 596.08 127C597.403 126.573 598.149 126.36 598.32 126.36C598.832 126.36 599.259 126.509 599.6 126.808C599.941 127.064 600.112 127.469 600.112 128.024C600.112 128.707 599.6 129.496 598.576 130.392C597.595 131.288 596.272 132.184 594.608 133.08C592.987 133.976 591.173 134.787 589.168 135.512C587.163 136.28 585.136 136.899 583.088 137.368C581.083 137.837 579.205 138.072 577.456 138.072ZM620.93 98.136C619.095 98.136 617.858 97.88 617.218 97.368C616.621 96.856 616.322 96.3653 616.322 95.896C616.322 95.2133 616.663 94.5947 617.346 94.04C618.071 93.4853 618.946 93.1013 619.97 92.888C621.207 92.632 622.701 92.376 624.45 92.12C626.242 91.8213 628.098 91.5653 630.018 91.352C631.938 91.096 633.815 90.904 635.65 90.776C637.485 90.648 639.085 90.584 640.45 90.584C642.242 90.584 643.607 90.9253 644.546 91.608C645.527 92.248 646.018 92.8453 646.018 93.4C646.018 93.4427 646.018 93.528 646.018 93.656C646.018 93.9973 645.954 94.296 645.826 94.552C645.698 94.808 645.271 95.064 644.546 95.32C643.863 95.5333 642.69 95.768 641.026 96.024C639.405 96.2373 637.101 96.472 634.114 96.728C633.517 96.7707 632.855 96.8347 632.13 96.92C631.959 98.072 631.703 99.5867 631.362 101.464C631.021 103.341 630.637 105.432 630.21 107.736C629.783 110.04 629.335 112.408 628.866 114.84C628.397 117.229 627.927 119.512 627.458 121.688C627.031 123.864 626.647 125.784 626.306 127.448C626.007 129.112 625.773 130.371 625.602 131.224C627.821 130.925 629.783 130.733 631.49 130.648C633.239 130.52 634.413 130.456 635.01 130.456C636.589 130.456 637.378 131.053 637.378 132.248C637.378 132.589 636.653 133.08 635.202 133.72C633.751 134.36 631.895 135.021 629.634 135.704C627.373 136.387 625.026 137.027 622.594 137.624C620.589 138.093 618.605 138.456 616.642 138.712C614.722 138.968 613.335 139.096 612.482 139.096C611.543 139.096 610.882 138.925 610.498 138.584C610.114 138.285 609.922 137.837 609.922 137.24C609.922 136.643 610.093 136.045 610.434 135.448C610.818 134.851 611.33 134.424 611.97 134.168C613.122 133.741 614.402 133.357 615.81 133.016C617.218 132.632 618.647 132.291 620.098 131.992C620.098 131.779 620.098 131.523 620.098 131.224C620.098 130.627 620.205 129.496 620.418 127.832C620.674 126.168 620.994 124.184 621.378 121.88C621.762 119.533 622.189 117.101 622.658 114.584C623.127 112.024 623.575 109.592 624.002 107.288C624.429 104.941 624.813 102.915 625.154 101.208C625.495 99.4587 625.751 98.2853 625.922 97.688C624.855 97.816 623.895 97.9227 623.042 98.008C622.189 98.0933 621.485 98.136 620.93 98.136ZM662.705 137.112C661.638 137.112 660.763 136.813 660.081 136.216C659.441 135.661 659.121 135.043 659.121 134.36C659.121 133.592 659.227 133.016 659.441 132.632C659.697 132.205 660.23 131.907 661.041 131.736C663.046 131.267 665.115 130.712 667.249 130.072C669.425 129.389 671.451 128.685 673.329 127.96C675.206 127.192 676.721 126.445 677.873 125.72C679.067 124.995 679.665 124.355 679.665 123.8C679.665 123.288 679.195 122.797 678.257 122.328C677.318 121.816 676.123 121.261 674.673 120.664C673.222 120.067 671.665 119.405 670.001 118.68C668.337 117.955 666.779 117.123 665.329 116.184C663.878 115.245 662.683 114.179 661.745 112.984C660.806 111.747 660.337 110.339 660.337 108.76C660.337 106.285 660.934 103.981 662.129 101.848C663.366 99.672 664.966 97.6667 666.929 95.832C668.891 93.9973 671.046 92.312 673.393 90.776C675.782 89.1973 678.129 87.8107 680.433 86.616C682.779 85.3787 684.87 84.2907 686.705 83.352C687.302 83.0107 687.878 82.776 688.433 82.648C688.987 82.52 689.478 82.456 689.905 82.456C691.142 82.456 692.038 82.7333 692.593 83.288C693.147 83.8427 693.425 84.4827 693.425 85.208C693.425 85.8053 693.105 86.5093 692.465 87.32C691.825 88.088 690.907 88.7707 689.713 89.368C688.518 89.9653 687.089 90.264 685.425 90.264H684.913C683.462 91.032 681.883 91.9493 680.177 93.016C678.47 94.0827 676.785 95.256 675.121 96.536C673.457 97.816 671.921 99.1387 670.513 100.504C669.147 101.827 668.038 103.107 667.185 104.344C666.374 105.581 665.969 106.712 665.969 107.736C665.969 108.973 666.438 110.083 667.377 111.064C668.315 112.045 669.51 112.92 670.961 113.688C672.454 114.456 674.011 115.203 675.633 115.928C677.297 116.653 678.854 117.4 680.305 118.168C681.798 118.893 683.014 119.704 683.953 120.6C684.891 121.453 685.361 122.456 685.361 123.608C685.361 124.931 684.891 126.189 683.953 127.384C683.057 128.579 681.862 129.688 680.369 130.712C678.875 131.693 677.233 132.589 675.441 133.4C673.691 134.168 671.963 134.829 670.257 135.384C668.55 135.939 667.014 136.365 665.649 136.664C664.326 136.963 663.345 137.112 662.705 137.112ZM708.944 93.976C707.195 93.976 705.957 93.8907 705.232 93.72C704.507 93.5067 704.059 93.2293 703.888 92.888C703.76 92.5467 703.696 92.2053 703.696 91.864C703.696 91.3947 703.931 90.968 704.4 90.584C704.912 90.1573 705.936 89.816 707.472 89.56C709.435 89.1333 711.739 88.7067 714.384 88.28C717.072 87.8107 719.931 87.384 722.96 87C725.989 86.5733 729.019 86.1893 732.048 85.848C735.12 85.5067 738.043 85.2507 740.816 85.08C743.632 84.8667 746.128 84.76 748.304 84.76C751.205 84.76 753.168 85.016 754.192 85.528C755.259 86.04 755.792 86.5947 755.792 87.192C755.792 87.7467 755.493 88.2587 754.896 88.728C754.341 89.1973 753.381 89.432 752.016 89.432C751.461 89.432 750.181 89.56 748.176 89.816C746.171 90.0293 743.717 90.328 740.816 90.712C737.957 91.0533 734.928 91.4373 731.728 91.864C731.515 93.3147 731.195 95.2347 730.768 97.624C730.341 99.9707 729.851 102.552 729.296 105.368C728.784 108.184 728.251 111.021 727.696 113.88C727.184 116.696 726.693 119.32 726.224 121.752C725.797 124.184 725.435 126.189 725.136 127.768C724.837 129.347 724.667 130.285 724.624 130.584C724.453 131.907 724.069 132.909 723.472 133.592C722.917 134.232 722.299 134.552 721.616 134.552C720.805 134.552 720.123 134.211 719.568 133.528C719.056 132.803 718.8 131.544 718.8 129.752C718.8 129.155 718.928 128.003 719.184 126.296C719.44 124.547 719.781 122.477 720.208 120.088C720.635 117.699 721.104 115.16 721.616 112.472C722.128 109.784 722.64 107.16 723.152 104.6C723.664 101.997 724.133 99.6507 724.56 97.56C724.987 95.4267 725.307 93.7627 725.52 92.568C722.149 92.952 718.971 93.2933 715.984 93.592C713.04 93.848 710.693 93.976 708.944 93.976Z" fill="#0694A2"/>
</svg>
